<?xml version="1.0" encoding="UTF-8" standalone="no"?>
<svg
   enable-background="new 0 0 100 100"
   viewBox="0 0 100 100"
   version="1.1"
   id="svg6"
   sodipodi:docname="eclair.svg"
   inkscape:version="1.1 (c68e22c387, 2021-05-23)"
   xmlns:inkscape="http://www.inkscape.org/namespaces/inkscape"
   xmlns:sodipodi="http://sodipodi.sourceforge.net/DTD/sodipodi-0.dtd"
   xmlns="http://www.w3.org/2000/svg"
   xmlns:svg="http://www.w3.org/2000/svg">
  <defs
     id="defs10" />
  <sodipodi:namedview
     id="namedview8"
     pagecolor="#ffffff"
     bordercolor="#666666"
     borderopacity="1.0"
     inkscape:pageshadow="2"
     inkscape:pageopacity="0.0"
     inkscape:pagecheckerboard="0"
     showgrid="false"
     inkscape:zoom="7.53"
     inkscape:cx="49.933599"
     inkscape:cy="50"
     inkscape:window-width="2560"
     inkscape:window-height="1377"
     inkscape:window-x="3232"
     inkscape:window-y="-8"
     inkscape:window-maximized="1"
     inkscape:current-layer="svg6" />
  <path
     d="M 89,82 H 11 c -1.11,0 -2,0.9 -2,2 0,3.31 2.69,6 6,6 h 70 c 3.31,0 6,-2.69 6,-6 0,-1.1 -0.9,-2 -2,-2 z M 50,78 C 70.24,78 87,77.32 87,68.95 87,67.56 86.59,66.14 85.83,64.73 81.07,68.1 74.44,67.67 70.18,63.41 69.61,62.84 68.95,62.37 68.25,62 67.85,61.78 67.43,61.59 67,61.45 V 65 c 0,3.86 -3.14,7 -7,7 -3.33,0 -6.12,-2.33 -6.83,-5.45 -4.13,1.11 -8.67,-0.02 -11.79,-3.14 -0.57,-0.57 -1.22,-1.04 -1.9,-1.41 -2.42,-1.3 -5.35,-1.3 -7.76,0 -0.69,0.37 -1.33,0.84 -1.91,1.41 -2.3,2.3 -5.36,3.57 -8.61,3.57 -2.56,0 -4.99,-0.79 -7.03,-2.25 C 13.4,66.14 13,67.57 13,68.95 13,77.32 29.75,78 50,78 Z"
     id="path2"
     style="display:inline;fill:#ffffff" />
  <path
     d="m 21.2,62.98 c 1.38,0 2.71,-0.34 3.89,-0.98 0.69,-0.37 1.32,-0.85 1.89,-1.42 4.75,-4.75 12.48,-4.75 17.23,0 0.58,0.58 1.24,1.05 1.95,1.42 2.36,1.25 5.24,1.3 7.68,0 0.06,-0.03 0.12,-0.05 0.17,-0.08 0.62,-0.35 1.38,-0.35 2,0.01 0.03,0.02 0.05,0.05 0.08,0.07 0.56,0.37 0.91,0.98 0.91,1.66 V 65 c 0,1.65 1.34,3 3,3 1.65,0 3,-1.35 3,-3 v -5.96 c 0,-0.55 0.23,-1.07 0.63,-1.45 0.4,-0.38 0.94,-0.57 1.48,-0.54 2.99,0.17 5.79,1.43 7.9,3.53 0.58,0.58 1.22,1.05 1.91,1.42 2.41,1.3 5.34,1.3 7.76,0 0.26,-0.15 0.52,-0.31 0.77,-0.48 C 77.59,55.28 65.01,50 50,50 34.99,50 22.4,55.29 16.54,61.52 c 0.25,0.17 0.5,0.33 0.77,0.48 1.18,0.64 2.51,0.98 3.89,0.98 z M 37,34 h 8 c 1.65,0 3,1.35 3,3 v 1 c 0,1.1 0.9,2 2,2 1.1,0 2,-0.9 2,-2 v -1 c 0,-3.86 -3.14,-7 -7,-7 h -8 c -1.65,0 -3,-1.35 -3,-3 0,-1.65 1.35,-3 3,-3 h 22 c 3.86,0 7,-3.14 7,-7 0,-3.86 -3.14,-7 -7,-7 h -9 c -1.1,0 -2,0.9 -2,2 0,1.1 0.9,2 2,2 h 9 c 1.65,0 3,1.35 3,3 0,1.65 -1.35,3 -3,3 H 37 c -3.86,0 -7,3.14 -7,7 0,3.86 3.14,7 7,7 z"
     id="path4"
     style="display:inline;fill:#ffffff" />
</svg>
